<svg width="48" height="48" viewBox="0 0 48 48" fill="none" xmlns="http://www.w3.org/2000/svg">
<path d="M32.48 15.52C33.5957 16.6345 34.4808 17.9579 35.0847 19.4147C35.6886 20.8715 35.9994 22.433 35.9994 24.01C35.9994 25.587 35.6886 27.1485 35.0847 28.6053C34.4808 30.062 33.5957 31.3855 32.48 32.5M15.52 32.48C14.4043 31.3655 13.5192 30.042 12.9153 28.5853C12.3114 27.1285 12.0006 25.567 12.0006 23.99C12.0006 22.413 12.3114 20.8515 12.9153 19.3947C13.5192 17.9379 14.4043 16.6145 15.52 15.5M38.14 9.85999C41.8894 13.6105 43.9957 18.6967 43.9957 24C43.9957 29.3033 41.8894 34.3894 38.14 38.14M9.86 38.14C6.11058 34.3894 4.00427 29.3033 4.00427 24C4.00427 18.6967 6.11058 13.6105 9.86 9.85999M28 24C28 26.2091 26.2091 28 24 28C21.7909 28 20 26.2091 20 24C20 21.7908 21.7909 20 24 20C26.2091 20 28 21.7908 28 24Z" stroke="#86D38B" stroke-width="4" stroke-linecap="round" stroke-linejoin="round"/>
</svg>
